<svg xmlns="http://www.w3.org/2000/svg" xmlns:xlink="http://www.w3.org/1999/xlink" width="714.531" height="183.437" viewBox="0 0 714.531 183.437"><defs><filter id="a" x="1.194" y="0" width="176.567" height="183.437" filterUnits="userSpaceOnUse"><feOffset dy="3" input="SourceAlpha"/><feGaussianBlur stdDeviation="21" result="b"/><feFlood flood-opacity="0.161"/><feComposite operator="in" in2="b"/><feComposite in="SourceGraphic"/></filter></defs><g transform="translate(-379.469 -296.458)"><g transform="translate(-84.531 30)"><path d="M37.259,0h91.958a37.259,37.259,0,0,1,37.259,37.259V75.311a37.259,37.259,0,0,1-37.259,37.259H37.259A37.259,37.259,0,0,1,0,75.311V37.259A37.259,37.259,0,0,1,37.259,0Z" transform="translate(464 299)" fill="#189ab4"/><g transform="matrix(1, 0, 0, 1, 464, 266.46)" filter="url(#a)"><path d="M28.719,0,57.437,50.567H0Z" transform="translate(114.76 60) rotate(90)" fill="#d4f1f4"/></g></g><text transform="translate(553 441)" fill="#05445e" font-size="141" font-family="Impact"><tspan x="0" y="0">YouClone</tspan></text></g></svg>